<svg xmlns="http://www.w3.org/2000/svg" xmlns:svg="http://www.w3.org/2000/svg" id="svg923" width="1500" height="1600" version="1.1" viewBox="0 -40 1125 1200"><metadata id="metadata929"/><rect style="opacity:1;fill:#fc0;fill-opacity:.50211864;fill-rule:evenodd;stroke:#000;stroke-width:36.5204277;stroke-linecap:round;stroke-linejoin:miter;stroke-miterlimit:4;stroke-dasharray:none;stroke-opacity:1" id="rect3904" width="724.971" height="461.211" x="141.445" y="264.682"/><rect style="opacity:1;fill:#fc0;fill-opacity:.50211864;fill-rule:evenodd;stroke:#000;stroke-width:36.5204277;stroke-linecap:round;stroke-linejoin:miter;stroke-miterlimit:4;stroke-dasharray:none;stroke-opacity:1" id="rect3936" width="307.504" height="237.059" x="558.912" y="488.834"/><rect style="opacity:1;fill:#fc0;fill-opacity:.50211864;fill-rule:evenodd;stroke:#000;stroke-width:36.5204277;stroke-linecap:round;stroke-linejoin:miter;stroke-miterlimit:4;stroke-dasharray:none;stroke-opacity:1" id="rect3904-6" width="724.971" height="461.211" x="216.055" y="336.83"/><rect style="opacity:1;fill:#fc0;fill-opacity:.50211864;fill-rule:evenodd;stroke:#000;stroke-width:36.5204277;stroke-linecap:round;stroke-linejoin:miter;stroke-miterlimit:4;stroke-dasharray:none;stroke-opacity:1" id="rect3936-0" width="307.504" height="237.059" x="633.522" y="560.982"/><rect style="opacity:1;fill:#fc0;fill-opacity:.50211864;fill-rule:evenodd;stroke:#000;stroke-width:36.5204277;stroke-linecap:round;stroke-linejoin:miter;stroke-miterlimit:4;stroke-dasharray:none;stroke-opacity:1" id="rect3904-3" width="724.971" height="461.211" x="290.665" y="409.056"/><rect style="opacity:1;fill:#fc0;fill-opacity:.50211864;fill-rule:evenodd;stroke:#000;stroke-width:36.5204277;stroke-linecap:round;stroke-linejoin:miter;stroke-miterlimit:4;stroke-dasharray:none;stroke-opacity:1" id="rect3936-4" width="307.504" height="237.059" x="708.132" y="633.207"/><g id="g4591" transform="matrix(0.75,0,0,0.75,-353.53289,486.21144)"><g id="g4533"><g id="g4531" transform="matrix(0,7.964807,-10.856264,0,1950.8874,606.58059)"><path id="path4527" d="m -134.88535,15.398446 c 4.037,0 7.309,-3.271 7.309,-7.308 0,-4.037 -3.271,-7.30900001 -7.309,-7.30900001 h -14.616 c -4.037,0 -7.309,3.27200001 -7.309,7.30900001 V 127.46144 c 0,4.034 3.271,7.307 7.309,7.307 h 14.616 c 4.037,0 7.309,-3.271 7.309,-7.307 0,-4.037 -3.271,-7.31 -7.309,-7.31 h -7.308 V 15.398446 Z"/><path id="path4529" d="m 6.4944187,118.84903 c -4.037,0 -7.30999897,3.271 -7.30999897,7.31 0,4.034 3.27199897,7.307 7.30999897,7.307 H 21.109419 c 4.037,0 7.309,-3.271 7.309,-7.307 V 6.788036 c 0,-4.037 -3.271,-7.30900001 -7.309,-7.30900001 H 6.4944187 c -4.037,0 -7.30999897,3.27200001 -7.30999897,7.30900001 0,4.037 3.27199897,7.308 7.30999897,7.308 H 13.801419 V 118.84903 Z"/></g></g></g></svg>