<svg xmlns="http://www.w3.org/2000/svg" xmlns:xlink="http://www.w3.org/1999/xlink" id="Capa_1" width="512" height="512" x="0" style="enable-background:new 0 0 512 512" y="0" version="1.1" viewBox="0 0 512 512" xml:space="preserve"><g><path d="M32,480h480v32H0V0h32h32v32H32v64h32v32H32v64h32v32H32v64h32v32H32v64h32v32H32V480z M398.656,208.625 C396.812,236.875,394.5,272,384,272c-18.719,0-23.844-10.156-32.812-37.063C342.875,210.063,331.531,176,288,176 c-45.547,0-55.234,58.125-63.781,109.375C218.078,322.188,210.453,368,192,368c-32.672,0-47.953-85.938-48-144h-32 c0,18,2.25,176,80,176c45.547,0,55.234-58.094,63.781-109.375C261.922,253.813,269.547,208,288,208 c18.719,0,23.844,10.156,32.812,37.063C329.125,269.938,340.469,304,384,304c40.469,0,43.594-47.438,46.594-93.25 C435.594,134.188,444.375,80,512,80V48C409.156,48,402.844,144.688,398.656,208.625z"/></g></svg>