<svg xmlns="http://www.w3.org/2000/svg" xmlns:svg="http://www.w3.org/2000/svg" xmlns:xlink="http://www.w3.org/1999/xlink" id="Capa_1" width="510" height="510" x="0" style="enable-background:new 0 0 510 510" y="0" version="1.1" viewBox="0 0 510 510" xml:space="preserve"><metadata id="metadata4586"/><defs id="defs4584"><symbol id="money-bill-alt"><title id="money-bill-alt-title">Money Bill-alt</title><path id="path274179" d="M640 120v272c0 13.255-10.745 24-24 24H24c-13.255 0-24-10.745-24-24V120c0-13.255 10.745-24 24-24h592c13.255 0 24 10.745 24 24zM96 384c0-35.346-28.654-64-64-64v64h64zm0-256H32v64c35.346 0 64-28.654 64-64zm304 128c0-53.021-35.816-96-80-96s-80 42.979-80 96c0 53.012 35.814 96 80 96 44.167 0 80-42.969 80-96zm208 64c-35.346 0-64 28.654-64 64h64v-64zm0-192h-64c0 35.346 28.654 64 64 64v-64zM277.563 299.527c0-7.477 3.917-11.572 11.573-11.572h15.131v-39.878c0-5.163.534-10.503.534-10.503h-.356s-1.779 2.67-2.848 3.738c-4.451 4.273-10.504 4.451-15.666-1.068l-5.518-6.231c-5.342-5.341-4.984-11.216.534-16.379l21.72-19.939c4.449-4.095 8.366-5.697 14.42-5.697h12.105c7.656 0 11.749 3.916 11.749 11.572v84.384h15.488c7.655 0 11.572 4.094 11.572 11.572v8.901c0 7.477-3.917 11.572-11.572 11.572h-67.293c-7.656 0-11.573-4.095-11.573-11.572v-8.9z"/></symbol></defs><g id="g4549"><g id="credit-card"><path id="path4546" d="M459,51H51C22.95,51,0,73.95,0,102v306c0,28.05,22.95,51,51,51h408c28.05,0,51-22.95,51-51V102 C510,73.95,487.05,51,459,51z M459,408H51V255h408V408z M459,153H51v-51h408V153z"/></g></g><use id="use305445" width="100%" height="100%" x="0" y="0" transform="matrix(0.30516385,0,0,0.29447407,56.902444,279.4378)" xlink:href="#money-bill-alt" style="fill:#000;stroke:none"/></svg>