<svg xmlns="http://www.w3.org/2000/svg" xmlns:svg="http://www.w3.org/2000/svg" id="Document" x="0" y="0" enable-background="new 0 0 20 20" version="1.1" viewBox="0 0 20 20" xml:space="preserve"><metadata id="metadata1013"/><path id="path1006" fill-rule="evenodd" d="M16,1H4C3.447,1,3,1.447,3,2v16c0,0.552,0.447,1,1,1h12c0.553,0,1-0.448,1-1V2 C17,1.448,16.553,1,16,1z M15,17H5V3h10V17z" clip-rule="evenodd"/><g style="overflow:hidden;fill:#f40000;stroke-width:148.80952454;fill-opacity:1" id="g1041" transform="matrix(0.00672,0,0,0.00672,7.5322737,9.6163172)"><path id="path1027" d="M 512,102.4 C 737.28,102.4 921.6,286.72 921.6,512 921.6,737.28 737.28,921.6 512,921.6 286.72,921.6 102.4,737.28 102.4,512 102.4,286.72 286.72,102.4 512,102.4 M 512,0 C 230.4,0 0,230.4 0,512 c 0,281.6 230.4,512 512,512 281.6,0 512,-230.4 512,-512 C 1024,230.4 793.6,0 512,0 Z" style="stroke-width:148.80952454;fill:#f40000;fill-opacity:1"/><path id="path1029" d="M 583.68,512 691.2,404.48 c 20.48,-20.48 20.48,-51.2 0,-71.68 -20.48,-20.48 -51.2,-20.48 -71.68,0 L 512,440.32 404.48,332.8 c -20.48,-20.48 -51.2,-20.48 -71.68,0 -20.48,20.48 -20.48,51.2 0,71.68 L 440.32,512 332.8,619.52 c -20.48,20.48 -20.48,51.2 0,71.68 20.48,20.48 51.2,20.48 71.68,0 L 512,583.68 619.52,691.2 c 20.48,20.48 51.2,20.48 71.68,0 20.48,-20.48 20.48,-51.2 0,-71.68 z" style="stroke-width:148.80952454;fill:#f40000;fill-opacity:1"/></g></svg>